{
	"patcher" : 	{
		"fileversion" : 1,
		"appversion" : 		{
			"major" : 8,
			"minor" : 6,
			"revision" : 0,
			"architecture" : "x64",
			"modernui" : 1
		}
,
		"classnamespace" : "box",
		"rect" : [ 36.0, 84.0, 1323.0, 1267.0 ],
		"bglocked" : 0,
		"openinpresentation" : 0,
		"default_fontsize" : 12.0,
		"default_fontface" : 0,
		"default_fontname" : "Arial",
		"gridonopen" : 1,
		"gridsize" : [ 15.0, 15.0 ],
		"gridsnaponopen" : 1,
		"objectsnaponopen" : 1,
		"statusbarvisible" : 2,
		"toolbarvisible" : 1,
		"lefttoolbarpinned" : 0,
		"toptoolbarpinned" : 0,
		"righttoolbarpinned" : 0,
		"bottomtoolbarpinned" : 0,
		"toolbars_unpinned_last_save" : 0,
		"tallnewobj" : 0,
		"boxanimatetime" : 200,
		"enablehscroll" : 1,
		"enablevscroll" : 1,
		"devicewidth" : 0.0,
		"description" : "",
		"digest" : "",
		"tags" : "",
		"style" : "",
		"subpatcher_template" : "",
		"assistshowspatchername" : 0,
		"boxes" : [ 			{
				"box" : 				{
					"id" : "obj-29",
					"linecount" : 3,
					"maxclass" : "comment",
					"numinlets" : 1,
					"numoutlets" : 0,
					"patching_rect" : [ 481.0, 14.0, 306.0, 47.0 ],
					"text" : "Used the hello-instrument example tinkercad and code\nhttps://www.tinkercad.com/things/5TqKYO35hiF-copy-of-hello-instrument-max/editel?tenant=circuits "
				}

			}
, 			{
				"box" : 				{
					"bubble" : 1,
					"bubbleside" : 3,
					"fontsize" : 16.0,
					"id" : "obj-50",
					"maxclass" : "comment",
					"numinlets" : 1,
					"numoutlets" : 0,
					"patching_rect" : [ 540.000016093254089, 866.666692495346069, 182.0, 28.0 ],
					"presentation" : 1,
					"presentation_rect" : [ 632.333330869674683, 858.66669225692749, 82.666669130325317, 28.0 ],
					"text" : "Original"
				}

			}
, 			{
				"box" : 				{
					"annotation" : "## View or monitor video input ##",
					"bgmode" : 1,
					"border" : 0,
					"clickthrough" : 0,
					"enablehscroll" : 0,
					"enablevscroll" : 0,
					"id" : "obj-19",
					"lockeddragscroll" : 0,
					"lockedsize" : 0,
					"maxclass" : "bpatcher",
					"name" : "vz.viewr.maxpat",
					"numinlets" : 1,
					"numoutlets" : 0,
					"offset" : [ 0.0, 0.0 ],
					"patching_rect" : [ 2090.0, 546.0, 230.0, 208.0 ],
					"presentation" : 1,
					"presentation_rect" : [ 724.000021576881409, 733.0, 230.0, 208.0 ],
					"prototypename" : "pixl",
					"varname" : "viewr[3]",
					"viewvisibility" : 1
				}

			}
, 			{
				"box" : 				{
					"id" : "obj-14",
					"maxclass" : "message",
					"numinlets" : 2,
					"numoutlets" : 1,
					"outlettype" : [ "" ],
					"patching_rect" : [ 2091.0, 224.000006675720215, 114.0, 22.0 ],
					"text" : "read Fancy-mv.mp4"
				}

			}
, 			{
				"box" : 				{
					"id" : "obj-3",
					"maxclass" : "newobj",
					"numinlets" : 1,
					"numoutlets" : 1,
					"outlettype" : [ "bang" ],
					"patching_rect" : [ 2091.0, 161.0, 58.0, 22.0 ],
					"text" : "loadbang"
				}

			}
, 			{
				"box" : 				{
					"bubble" : 1,
					"bubbleside" : 0,
					"id" : "obj-63",
					"maxclass" : "comment",
					"numinlets" : 1,
					"numoutlets" : 0,
					"patching_rect" : [ 322.0, 95.0, 150.0, 39.0 ],
					"presentation" : 1,
					"presentation_rect" : [ 174.0, 199.0, 150.0, 39.0 ],
					"text" : "Play Fancy by Twice"
				}

			}
, 			{
				"box" : 				{
					"id" : "obj-61",
					"maxclass" : "comment",
					"numinlets" : 1,
					"numoutlets" : 0,
					"patching_rect" : [ 508.0, 914.0, 150.0, 20.0 ],
					"presentation" : 1,
					"presentation_rect" : [ 470.5, 801.0, 31.0, 20.0 ],
					"text" : "high"
				}

			}
, 			{
				"box" : 				{
					"id" : "obj-59",
					"maxclass" : "comment",
					"numinlets" : 1,
					"numoutlets" : 0,
					"patching_rect" : [ 415.0, 912.0, 150.0, 20.0 ],
					"presentation" : 1,
					"presentation_rect" : [ 376.5, 801.0, 28.0, 20.0 ],
					"text" : "low"
				}

			}
, 			{
				"box" : 				{
					"id" : "obj-53",
					"maxclass" : "comment",
					"numinlets" : 1,
					"numoutlets" : 0,
					"patching_rect" : [ 467.0, 850.0, 150.0, 20.0 ],
					"presentation" : 1,
					"presentation_rect" : [ 365.5, 733.0, 145.0, 20.0 ],
					"text" : "Adjust light level settings"
				}

			}
, 			{
				"box" : 				{
					"bubble" : 1,
					"bubbleside" : 0,
					"id" : "obj-48",
					"maxclass" : "comment",
					"numinlets" : 1,
					"numoutlets" : 0,
					"patching_rect" : [ 374.0, 870.0, 150.0, 39.0 ],
					"presentation" : 1,
					"presentation_rect" : [ 209.5, 834.0, 139.0, 39.0 ],
					"text" : "Flanger Bypass Toggle"
				}

			}
, 			{
				"box" : 				{
					"bubble" : 1,
					"bubbleside" : 0,
					"id" : "obj-22",
					"maxclass" : "comment",
					"numinlets" : 1,
					"numoutlets" : 0,
					"patching_rect" : [ 269.0, 956.0, 150.0, 39.0 ],
					"presentation" : 1,
					"presentation_rect" : [ 147.0, 834.0, 58.0, 39.0 ],
					"text" : "Volume",
					"textjustification" : 1
				}

			}
, 			{
				"box" : 				{
					"bubble" : 1,
					"bubbleside" : 0,
					"id" : "obj-18",
					"maxclass" : "comment",
					"numinlets" : 1,
					"numoutlets" : 0,
					"patching_rect" : [ 512.0, 941.0, 150.0, 39.0 ],
					"presentation" : 1,
					"presentation_rect" : [ 873.0, 162.0, 68.0, 39.0 ],
					"text" : "Loop End",
					"textjustification" : 1
				}

			}
, 			{
				"box" : 				{
					"bubble" : 1,
					"bubbleside" : 0,
					"id" : "obj-11",
					"maxclass" : "comment",
					"numinlets" : 1,
					"numoutlets" : 0,
					"patching_rect" : [ 559.0, 992.0, 150.0, 39.0 ],
					"presentation" : 1,
					"presentation_rect" : [ 761.0, 162.0, 69.0, 39.0 ],
					"text" : "Loop Start",
					"textjustification" : 1
				}

			}
, 			{
				"box" : 				{
					"id" : "obj-58",
					"maxclass" : "newobj",
					"numinlets" : 1,
					"numoutlets" : 1,
					"outlettype" : [ "" ],
					"patching_rect" : [ 548.0, 743.0, 172.0, 22.0 ],
					"text" : "pattrforward bp.Flanger:Regen"
				}

			}
, 			{
				"box" : 				{
					"id" : "obj-57",
					"maxclass" : "newobj",
					"numinlets" : 1,
					"numoutlets" : 1,
					"outlettype" : [ "" ],
					"patching_rect" : [ 594.0, 696.0, 173.0, 22.0 ],
					"text" : "pattrforward bp.Flanger:Center"
				}

			}
, 			{
				"box" : 				{
					"id" : "obj-56",
					"maxclass" : "newobj",
					"numinlets" : 6,
					"numoutlets" : 1,
					"outlettype" : [ "" ],
					"patching_rect" : [ 594.0, 654.0, 103.0, 22.0 ],
					"text" : "scale 0. 1. 0 2000"
				}

			}
, 			{
				"box" : 				{
					"id" : "obj-55",
					"maxclass" : "message",
					"numinlets" : 2,
					"numoutlets" : 1,
					"outlettype" : [ "" ],
					"patching_rect" : [ 862.5, 219.0, 99.0, 22.0 ],
					"text" : "selection 1 $1 $2"
				}

			}
, 			{
				"box" : 				{
					"id" : "obj-52",
					"maxclass" : "newobj",
					"numinlets" : 2,
					"numoutlets" : 1,
					"outlettype" : [ "" ],
					"patching_rect" : [ 862.0, 182.0, 55.0, 22.0 ],
					"text" : "pak 0. 0."
				}

			}
, 			{
				"box" : 				{
					"format" : 6,
					"id" : "obj-51",
					"maxclass" : "flonum",
					"numinlets" : 1,
					"numoutlets" : 2,
					"outlettype" : [ "", "bang" ],
					"parameter_enable" : 0,
					"patching_rect" : [ 924.0, 136.0, 50.0, 22.0 ]
				}

			}
, 			{
				"box" : 				{
					"format" : 6,
					"id" : "obj-49",
					"maxclass" : "flonum",
					"numinlets" : 1,
					"numoutlets" : 2,
					"outlettype" : [ "", "bang" ],
					"parameter_enable" : 0,
					"patching_rect" : [ 840.0, 136.0, 50.0, 22.0 ]
				}

			}
, 			{
				"box" : 				{
					"annotation" : "## VIZZIE video projector interface ##",
					"bgmode" : 1,
					"border" : 0,
					"clickthrough" : 0,
					"enablehscroll" : 0,
					"enablevscroll" : 0,
					"id" : "obj-47",
					"lockeddragscroll" : 0,
					"lockedsize" : 0,
					"maxclass" : "bpatcher",
					"name" : "vz.projectr.maxpat",
					"numinlets" : 4,
					"numoutlets" : 1,
					"offset" : [ 0.0, 0.0 ],
					"outlettype" : [ "" ],
					"patching_rect" : [ 1586.0, 1234.0, 168.0, 108.0 ],
					"presentation" : 1,
					"presentation_rect" : [ 547.0, 733.0, 168.0, 108.0 ],
					"prototypename" : "pixl",
					"varname" : "projectr[1]",
					"viewvisibility" : 1
				}

			}
, 			{
				"box" : 				{
					"annotation" : "## View or monitor video input ##",
					"bgmode" : 1,
					"border" : 0,
					"clickthrough" : 0,
					"enablehscroll" : 0,
					"enablevscroll" : 0,
					"id" : "obj-46",
					"lockeddragscroll" : 0,
					"lockedsize" : 0,
					"maxclass" : "bpatcher",
					"name" : "vz.viewr.maxpat",
					"numinlets" : 1,
					"numoutlets" : 0,
					"offset" : [ 0.0, 0.0 ],
					"patching_rect" : [ 2024.0, 1048.5, 230.0, 208.0 ],
					"prototypename" : "pixl",
					"varname" : "viewr[2]",
					"viewvisibility" : 1
				}

			}
, 			{
				"box" : 				{
					"annotation" : "## View or monitor video input ##",
					"bgmode" : 1,
					"border" : 1,
					"clickthrough" : 0,
					"enablehscroll" : 0,
					"enablevscroll" : 0,
					"id" : "obj-45",
					"lockeddragscroll" : 0,
					"lockedsize" : 0,
					"maxclass" : "bpatcher",
					"name" : "vz.viewr.maxpat",
					"numinlets" : 1,
					"numoutlets" : 0,
					"offset" : [ 0.0, 0.0 ],
					"patching_rect" : [ 1701.0, 1018.0, 230.0, 208.0 ],
					"presentation" : 1,
					"presentation_rect" : [ 70.5, 243.0, 874.5, 481.0 ],
					"prototypename" : "pixl",
					"varname" : "viewr[1]",
					"viewvisibility" : 1
				}

			}
, 			{
				"box" : 				{
					"annotation" : "## Fader/UI display for VIZZIE data ##",
					"bgmode" : 1,
					"border" : 0,
					"clickthrough" : 0,
					"enablehscroll" : 0,
					"enablevscroll" : 0,
					"id" : "obj-44",
					"lockeddragscroll" : 0,
					"lockedsize" : 0,
					"maxclass" : "bpatcher",
					"name" : "vz.fadr.maxpat",
					"numinlets" : 1,
					"numoutlets" : 1,
					"offset" : [ 0.0, 0.0 ],
					"outlettype" : [ "" ],
					"patching_rect" : [ 1151.0, 1166.0, 84.0, 196.0 ],
					"varname" : "fadr[2]",
					"viewvisibility" : 1
				}

			}
, 			{
				"box" : 				{
					"annotation" : "## Average VIZZIE input data ##",
					"bgmode" : 1,
					"border" : 0,
					"clickthrough" : 0,
					"enablehscroll" : 0,
					"enablevscroll" : 0,
					"id" : "obj-43",
					"lockeddragscroll" : 0,
					"lockedsize" : 0,
					"maxclass" : "bpatcher",
					"name" : "vz.averagr.maxpat",
					"numinlets" : 2,
					"numoutlets" : 2,
					"offset" : [ 0.0, 0.0 ],
					"outlettype" : [ "", "" ],
					"patching_rect" : [ 1151.0, 1010.0, 188.0, 130.0 ],
					"prototypename" : "pixl",
					"varname" : "smoothr[2]",
					"viewvisibility" : 1
				}

			}
, 			{
				"box" : 				{
					"annotation" : "## Convert R, G, and B video components to VIZZIE data ##",
					"bgmode" : 1,
					"border" : 0,
					"clickthrough" : 0,
					"enablehscroll" : 0,
					"enablevscroll" : 0,
					"id" : "obj-16",
					"lockeddragscroll" : 0,
					"lockedsize" : 0,
					"maxclass" : "bpatcher",
					"name" : "vz.analyzr.maxpat",
					"numinlets" : 5,
					"numoutlets" : 3,
					"offset" : [ 0.0, 0.0 ],
					"outlettype" : [ "", "", "" ],
					"patching_rect" : [ 1376.0, 1096.0, 208.0, 113.0 ],
					"prototypename" : "pixl",
					"varname" : "analyzr",
					"viewvisibility" : 1
				}

			}
, 			{
				"box" : 				{
					"annotation" : "## A chaotic equation-based VIZZIE data generator ##",
					"bgmode" : 1,
					"border" : 0,
					"clickthrough" : 0,
					"enablehscroll" : 0,
					"enablevscroll" : 0,
					"id" : "obj-42",
					"lockeddragscroll" : 0,
					"lockedsize" : 0,
					"maxclass" : "bpatcher",
					"name" : "vz.attractr.maxpat",
					"numinlets" : 2,
					"numoutlets" : 6,
					"offset" : [ 0.0, 0.0 ],
					"outlettype" : [ "", "", "", "", "", "" ],
					"patching_rect" : [ 1430.0, 702.0, 206.0, 186.0 ],
					"prototypename" : "pixl",
					"varname" : "attractr",
					"viewvisibility" : 1
				}

			}
, 			{
				"box" : 				{
					"annotation" : "## Change a video's brightness/contrast/saturation ##",
					"bgmode" : 1,
					"border" : 0,
					"clickthrough" : 0,
					"enablehscroll" : 0,
					"enablevscroll" : 0,
					"id" : "obj-41",
					"lockeddragscroll" : 0,
					"lockedsize" : 0,
					"maxclass" : "bpatcher",
					"name" : "vz.brcosr.maxpat",
					"numinlets" : 7,
					"numoutlets" : 1,
					"offset" : [ 0.0, 0.0 ],
					"outlettype" : [ "jit_gl_texture" ],
					"patching_rect" : [ 1376.0, 941.0, 208.0, 130.0 ],
					"prototypename" : "pixl",
					"varname" : "brcosr",
					"viewvisibility" : 1
				}

			}
, 			{
				"box" : 				{
					"bgmode" : 0,
					"border" : 0,
					"clickthrough" : 0,
					"enablehscroll" : 0,
					"enablevscroll" : 0,
					"extract" : 1,
					"id" : "obj-40",
					"lockeddragscroll" : 0,
					"lockedsize" : 0,
					"maxclass" : "bpatcher",
					"name" : "bp.CV LFO.maxpat",
					"numinlets" : 2,
					"numoutlets" : 2,
					"offset" : [ 0.0, 0.0 ],
					"outlettype" : [ "signal", "signal" ],
					"patching_rect" : [ 1392.0, 368.0, 214.0, 116.0 ],
					"varname" : "bp.CV LFO",
					"viewvisibility" : 1
				}

			}
, 			{
				"box" : 				{
					"annotation" : "## Convert BEAP module output (control voltages/MIDI) to VIZZIE data ##",
					"bgmode" : 1,
					"border" : 0,
					"clickthrough" : 0,
					"enablehscroll" : 0,
					"enablevscroll" : 0,
					"id" : "obj-39",
					"lockeddragscroll" : 0,
					"lockedsize" : 0,
					"maxclass" : "bpatcher",
					"name" : "vz.beapconvertr.maxpat",
					"numinlets" : 2,
					"numoutlets" : 2,
					"offset" : [ 0.0, 0.0 ],
					"outlettype" : [ "", "" ],
					"patching_rect" : [ 1300.0, 511.0, 108.0, 78.0 ],
					"prototypename" : "pixl",
					"varname" : "beapconvertr",
					"viewvisibility" : 1
				}

			}
, 			{
				"box" : 				{
					"annotation" : "## Fader/UI display for VIZZIE data ##",
					"bgmode" : 1,
					"border" : 0,
					"clickthrough" : 0,
					"enablehscroll" : 0,
					"enablevscroll" : 0,
					"id" : "obj-38",
					"lockeddragscroll" : 0,
					"lockedsize" : 0,
					"maxclass" : "bpatcher",
					"name" : "vz.fadr.maxpat",
					"numinlets" : 1,
					"numoutlets" : 1,
					"offset" : [ 0.0, 0.0 ],
					"outlettype" : [ "" ],
					"patching_rect" : [ 1155.0, 773.0, 84.0, 196.0 ],
					"varname" : "fadr[1]",
					"viewvisibility" : 1
				}

			}
, 			{
				"box" : 				{
					"annotation" : "## Average VIZZIE input data ##",
					"bgmode" : 1,
					"border" : 0,
					"clickthrough" : 0,
					"enablehscroll" : 0,
					"enablevscroll" : 0,
					"id" : "obj-37",
					"lockeddragscroll" : 0,
					"lockedsize" : 0,
					"maxclass" : "bpatcher",
					"name" : "vz.averagr.maxpat",
					"numinlets" : 2,
					"numoutlets" : 2,
					"offset" : [ 0.0, 0.0 ],
					"outlettype" : [ "", "" ],
					"patching_rect" : [ 1155.0, 617.0, 188.0, 130.0 ],
					"prototypename" : "pixl",
					"varname" : "smoothr[1]",
					"viewvisibility" : 1
				}

			}
, 			{
				"box" : 				{
					"annotation" : "## View or monitor video input ##",
					"bgmode" : 1,
					"border" : 0,
					"clickthrough" : 0,
					"enablehscroll" : 0,
					"enablevscroll" : 0,
					"id" : "obj-36",
					"lockeddragscroll" : 0,
					"lockedsize" : 0,
					"maxclass" : "bpatcher",
					"name" : "vz.viewr.maxpat",
					"numinlets" : 1,
					"numoutlets" : 0,
					"offset" : [ 0.0, 0.0 ],
					"patching_rect" : [ 1995.0, 796.0, 230.0, 208.0 ],
					"prototypename" : "pixl",
					"varname" : "viewr",
					"viewvisibility" : 1
				}

			}
, 			{
				"box" : 				{
					"annotation" : "## Smoothly crossfade between two videos and composite them ##",
					"bgmode" : 1,
					"border" : 0,
					"clickthrough" : 0,
					"enablehscroll" : 0,
					"enablevscroll" : 0,
					"id" : "obj-35",
					"lockeddragscroll" : 0,
					"lockedsize" : 0,
					"maxclass" : "bpatcher",
					"name" : "vz.mixfadr.maxpat",
					"numinlets" : 4,
					"numoutlets" : 1,
					"offset" : [ 0.0, 0.0 ],
					"outlettype" : [ "jit_gl_texture" ],
					"patching_rect" : [ 1712.0, 834.0, 168.0, 130.0 ],
					"varname" : "mixfadr",
					"viewvisibility" : 1
				}

			}
, 			{
				"box" : 				{
					"id" : "obj-31",
					"maxclass" : "message",
					"numinlets" : 2,
					"numoutlets" : 1,
					"outlettype" : [ "" ],
					"patching_rect" : [ 797.0, 590.0, 50.0, 22.0 ]
				}

			}
, 			{
				"box" : 				{
					"annotation" : "## Funhouse mirror distortion video effect ##",
					"bgmode" : 1,
					"border" : 0,
					"clickthrough" : 0,
					"enablehscroll" : 0,
					"enablevscroll" : 0,
					"id" : "obj-28",
					"lockeddragscroll" : 0,
					"lockedsize" : 0,
					"maxclass" : "bpatcher",
					"name" : "vz.reflectr.maxpat",
					"numinlets" : 14,
					"numoutlets" : 1,
					"offset" : [ 0.0, 0.0 ],
					"outlettype" : [ "jit_gl_texture" ],
					"patching_rect" : [ 1678.0, 533.0, 337.0, 160.0 ],
					"prototypename" : "pixl",
					"varname" : "reflectr",
					"viewvisibility" : 1
				}

			}
, 			{
				"box" : 				{
					"annotation" : "## Fader/UI display for VIZZIE data ##",
					"bgmode" : 1,
					"border" : 0,
					"clickthrough" : 0,
					"enablehscroll" : 0,
					"enablevscroll" : 0,
					"id" : "obj-27",
					"lockeddragscroll" : 0,
					"lockedsize" : 0,
					"maxclass" : "bpatcher",
					"name" : "vz.fadr.maxpat",
					"numinlets" : 1,
					"numoutlets" : 1,
					"offset" : [ 0.0, 0.0 ],
					"outlettype" : [ "" ],
					"patching_rect" : [ 1816.0, 302.0, 84.0, 196.0 ],
					"varname" : "fadr",
					"viewvisibility" : 1
				}

			}
, 			{
				"box" : 				{
					"annotation" : "## Average VIZZIE input data ##",
					"bgmode" : 1,
					"border" : 0,
					"clickthrough" : 0,
					"enablehscroll" : 0,
					"enablevscroll" : 0,
					"id" : "obj-26",
					"lockeddragscroll" : 0,
					"lockedsize" : 0,
					"maxclass" : "bpatcher",
					"name" : "vz.averagr.maxpat",
					"numinlets" : 2,
					"numoutlets" : 2,
					"offset" : [ 0.0, 0.0 ],
					"outlettype" : [ "", "" ],
					"patching_rect" : [ 1816.0, 148.0, 188.0, 130.0 ],
					"prototypename" : "pixl",
					"varname" : "smoothr",
					"viewvisibility" : 1
				}

			}
, 			{
				"box" : 				{
					"annotation" : "## Convert audio input to VIZZIE data output ##",
					"bgmode" : 1,
					"border" : 0,
					"clickthrough" : 0,
					"enablehscroll" : 0,
					"enablevscroll" : 0,
					"id" : "obj-34",
					"lockeddragscroll" : 0,
					"lockedsize" : 0,
					"maxclass" : "bpatcher",
					"name" : "vz.audio2vizzie.maxpat",
					"numinlets" : 1,
					"numoutlets" : 2,
					"offset" : [ 0.0, 0.0 ],
					"outlettype" : [ "", "" ],
					"patching_rect" : [ 1649.0, 287.0, 110.0, 54.0 ],
					"prototypename" : "pixl",
					"varname" : "audio2vizzie",
					"viewvisibility" : 1
				}

			}
, 			{
				"box" : 				{
					"bgcolor" : [ 0.776470588235294, 0.458823529411765, 0.72156862745098, 1.0 ],
					"bgmode" : 0,
					"border" : 0,
					"clickthrough" : 0,
					"enablehscroll" : 0,
					"enablevscroll" : 0,
					"extract" : 1,
					"id" : "obj-25",
					"lockeddragscroll" : 0,
					"lockedsize" : 0,
					"maxclass" : "bpatcher",
					"name" : "bp.Stereo.maxpat",
					"numinlets" : 2,
					"numoutlets" : 0,
					"offset" : [ 0.0, 0.0 ],
					"patching_rect" : [ 883.0, 755.0, 148.0, 116.0 ],
					"presentation" : 1,
					"presentation_rect" : [ 70.5, 733.0, 146.0, 97.0 ],
					"varname" : "bp.Stereo",
					"viewvisibility" : 1
				}

			}
, 			{
				"box" : 				{
					"bgmode" : 0,
					"border" : 0,
					"clickthrough" : 0,
					"enablehscroll" : 0,
					"enablevscroll" : 0,
					"extract" : 1,
					"id" : "obj-24",
					"lockeddragscroll" : 0,
					"lockedsize" : 0,
					"maxclass" : "bpatcher",
					"name" : "bp.Flanger.maxpat",
					"numinlets" : 1,
					"numoutlets" : 2,
					"offset" : [ 0.0, 0.0 ],
					"outlettype" : [ "signal", "signal" ],
					"patching_rect" : [ 862.0, 581.0, 190.0, 116.0 ],
					"varname" : "bp.Flanger",
					"viewvisibility" : 1
				}

			}
, 			{
				"box" : 				{
					"id" : "obj-23",
					"maxclass" : "message",
					"numinlets" : 2,
					"numoutlets" : 1,
					"outlettype" : [ "" ],
					"patching_rect" : [ 916.0, 316.0, 131.0, 22.0 ],
					"text" : "setclip 1 timestretch $1"
				}

			}
, 			{
				"box" : 				{
					"id" : "obj-20",
					"maxclass" : "toggle",
					"numinlets" : 1,
					"numoutlets" : 1,
					"outlettype" : [ "int" ],
					"parameter_enable" : 0,
					"patching_rect" : [ 917.0, 265.0, 24.0, 24.0 ]
				}

			}
, 			{
				"box" : 				{
					"id" : "obj-17",
					"maxclass" : "message",
					"numinlets" : 2,
					"numoutlets" : 1,
					"outlettype" : [ "" ],
					"patching_rect" : [ 862.0, 341.0, 29.5, 22.0 ],
					"text" : "1"
				}

			}
, 			{
				"box" : 				{
					"bgcolor" : [ 0.925490196078431, 0.827450980392157, 0.866666666666667, 1.0 ],
					"blinkcolor" : [ 0.890196078431372, 0.098039215686275, 0.352941176470588, 1.0 ],
					"id" : "obj-15",
					"maxclass" : "button",
					"numinlets" : 1,
					"numoutlets" : 1,
					"outlettype" : [ "bang" ],
					"parameter_enable" : 0,
					"patching_rect" : [ 862.0, 298.0, 24.0, 24.0 ],
					"presentation" : 1,
					"presentation_rect" : [ 194.0, 81.0, 110.0, 110.0 ]
				}

			}
, 			{
				"box" : 				{
					"bgcolor" : [ 0.815686274509804, 0.701960784313725, 0.701960784313725, 1.0 ],
					"floatoutput" : 1,
					"id" : "obj-13",
					"maxclass" : "dial",
					"numinlets" : 1,
					"numoutlets" : 1,
					"outlettype" : [ "float" ],
					"parameter_enable" : 0,
					"patching_rect" : [ 917.0, 75.0, 40.0, 40.0 ],
					"presentation" : 1,
					"presentation_rect" : [ 869.0, 82.0, 76.0, 76.0 ],
					"size" : 1.0
				}

			}
, 			{
				"box" : 				{
					"floatoutput" : 1,
					"id" : "obj-12",
					"maxclass" : "dial",
					"needlecolor" : [ 0.788235294117647, 0.192156862745098, 0.815686274509804, 1.0 ],
					"numinlets" : 1,
					"numoutlets" : 1,
					"outlettype" : [ "float" ],
					"outlinecolor" : [ 0.870588235294118, 0.741176470588235, 0.866666666666667, 1.0 ],
					"parameter_enable" : 0,
					"patching_rect" : [ 846.0, 75.0, 40.0, 40.0 ],
					"presentation" : 1,
					"presentation_rect" : [ 756.0, 81.0, 78.0, 78.0 ],
					"size" : 1.0
				}

			}
, 			{
				"box" : 				{
					"basictuning" : 440,
					"bgcolor" : [ 0.874509803921569, 0.803921568627451, 0.890196078431372, 1.0 ],
					"clipheight" : 109.0,
					"color" : [ 0.031372549019608, 0.380392156862745, 0.427450980392157, 1.0 ],
					"data" : 					{
						"clips" : [ 							{
								"absolutepath" : "TWICE _FANCY_ MV.mp3",
								"filename" : "TWICE _FANCY_ MV.mp3",
								"filekind" : "audiofile",
								"id" : "u800001241",
								"selection" : [ 0.0, 0.434210526315789 ],
								"loop" : 0,
								"content_state" : 								{
									"timestretch" : 0
								}

							}
 ]
					}
,
					"elementcolor" : [ 0.756862745098039, 0.615686274509804, 0.76078431372549, 1.0 ],
					"followglobaltempo" : 0,
					"formantcorrection" : 0,
					"id" : "obj-1",
					"maxclass" : "playlist~",
					"mode" : "basic",
					"numinlets" : 1,
					"numoutlets" : 5,
					"originallength" : [ 0.0, "ticks" ],
					"originaltempo" : 120.0,
					"outlettype" : [ "signal", "signal", "signal", "", "dictionary" ],
					"parameter_enable" : 0,
					"patching_rect" : [ 862.0, 398.0, 405.0, 110.0 ],
					"pitchcorrection" : 0,
					"presentation" : 1,
					"presentation_rect" : [ 326.0, 81.0, 405.0, 110.0 ],
					"quality" : "basic",
					"selectioncolor" : [ 0.792156862745098, 0.380392156862745, 0.796078431372549, 1.0 ],
					"timestretch" : [ 0 ]
				}

			}
, 			{
				"box" : 				{
					"annotation" : "## The VIZZIE audio/video player/looper ##",
					"bgmode" : 1,
					"border" : 0,
					"clickthrough" : 0,
					"enablehscroll" : 0,
					"enablevscroll" : 0,
					"id" : "obj-6",
					"lockeddragscroll" : 0,
					"lockedsize" : 0,
					"maxclass" : "bpatcher",
					"name" : "vz.avplayr.maxpat",
					"numinlets" : 7,
					"numoutlets" : 4,
					"offset" : [ 0.0, 0.0 ],
					"outlettype" : [ "jit_gl_texture", "signal", "signal", "" ],
					"patching_rect" : [ 2024.0, 328.0, 348.0, 170.0 ],
					"prototypename" : "pixl",
					"varname" : "avplayr",
					"viewvisibility" : 1
				}

			}
, 			{
				"box" : 				{
					"id" : "obj-9",
					"maxclass" : "comment",
					"numinlets" : 1,
					"numoutlets" : 0,
					"patching_rect" : [ 269.0, 482.0, 106.0, 20.0 ],
					"text" : "put another knob"
				}

			}
, 			{
				"box" : 				{
					"id" : "obj-7",
					"maxclass" : "comment",
					"numinlets" : 1,
					"numoutlets" : 0,
					"patching_rect" : [ 620.0, 461.0, 75.0, 20.0 ],
					"text" : "light sensor"
				}

			}
, 			{
				"box" : 				{
					"id" : "obj-5",
					"maxclass" : "newobj",
					"numinlets" : 1,
					"numoutlets" : 1,
					"outlettype" : [ "" ],
					"patching_rect" : [ 330.0, 8.0, 73.0, 22.0 ],
					"saved_object_attributes" : 					{
						"client_rect" : [ 10, 67, 410, 801 ],
						"parameter_enable" : 0,
						"parameter_mappable" : 0,
						"storage_rect" : [ 583, 69, 1034, 197 ]
					}
,
					"text" : "pattrstorage",
					"varname" : "u697002635"
				}

			}
, 			{
				"box" : 				{
					"id" : "obj-4",
					"maxclass" : "number",
					"numinlets" : 1,
					"numoutlets" : 2,
					"outlettype" : [ "", "bang" ],
					"parameter_enable" : 0,
					"patching_rect" : [ 546.0, 470.0, 50.0, 22.0 ]
				}

			}
, 			{
				"box" : 				{
					"id" : "obj-2",
					"maxclass" : "number",
					"numinlets" : 1,
					"numoutlets" : 2,
					"outlettype" : [ "", "bang" ],
					"parameter_enable" : 0,
					"patching_rect" : [ 627.0, 504.0, 50.0, 22.0 ],
					"presentation" : 1,
					"presentation_rect" : [ 460.5, 771.0, 50.0, 22.0 ]
				}

			}
, 			{
				"box" : 				{
					"id" : "obj-75",
					"maxclass" : "number",
					"maximum" : 1023,
					"minimum" : 0,
					"numinlets" : 1,
					"numoutlets" : 2,
					"outlettype" : [ "", "bang" ],
					"parameter_enable" : 0,
					"patching_rect" : [ 562.0, 504.0, 50.0, 22.0 ],
					"presentation" : 1,
					"presentation_rect" : [ 365.5, 771.0, 50.0, 22.0 ]
				}

			}
, 			{
				"box" : 				{
					"id" : "obj-69",
					"maxclass" : "newobj",
					"numinlets" : 6,
					"numoutlets" : 1,
					"outlettype" : [ "" ],
					"patching_rect" : [ 168.0, 811.0, 77.0, 22.0 ],
					"text" : "scale 0 1 1 0"
				}

			}
, 			{
				"box" : 				{
					"id" : "obj-68",
					"maxclass" : "toggle",
					"numinlets" : 1,
					"numoutlets" : 1,
					"outlettype" : [ "int" ],
					"parameter_enable" : 0,
					"patching_rect" : [ 167.0, 772.0, 24.0, 24.0 ],
					"presentation" : 1,
					"presentation_rect" : [ 230.5, 733.0, 97.0, 97.0 ]
				}

			}
, 			{
				"box" : 				{
					"id" : "obj-65",
					"maxclass" : "newobj",
					"numinlets" : 1,
					"numoutlets" : 1,
					"outlettype" : [ "" ],
					"patching_rect" : [ 167.0, 849.0, 175.0, 22.0 ],
					"text" : "pattrforward bp.Flanger:bypass"
				}

			}
, 			{
				"box" : 				{
					"id" : "obj-144",
					"maxclass" : "newobj",
					"numinlets" : 2,
					"numoutlets" : 2,
					"outlettype" : [ "bang", "" ],
					"patching_rect" : [ 208.0, 607.0, 50.0, 22.0 ],
					"text" : "select 1"
				}

			}
, 			{
				"box" : 				{
					"id" : "obj-138",
					"maxclass" : "number",
					"numinlets" : 1,
					"numoutlets" : 2,
					"outlettype" : [ "", "bang" ],
					"parameter_enable" : 0,
					"patching_rect" : [ 208.0, 558.0, 50.0, 22.0 ]
				}

			}
, 			{
				"box" : 				{
					"id" : "obj-134",
					"maxclass" : "newobj",
					"numinlets" : 6,
					"numoutlets" : 1,
					"outlettype" : [ "" ],
					"patching_rect" : [ 412.0, 538.0, 103.0, 22.0 ],
					"text" : "scale 0 1023 0. 1."
				}

			}
, 			{
				"box" : 				{
					"id" : "obj-129",
					"maxclass" : "comment",
					"numinlets" : 1,
					"numoutlets" : 0,
					"patching_rect" : [ 420.0, 462.0, 50.0, 20.0 ],
					"text" : "knob 1"
				}

			}
, 			{
				"box" : 				{
					"format" : 6,
					"id" : "obj-101",
					"maxclass" : "flonum",
					"numinlets" : 1,
					"numoutlets" : 2,
					"outlettype" : [ "", "bang" ],
					"parameter_enable" : 0,
					"patching_rect" : [ 548.0, 578.0, 50.0, 22.0 ]
				}

			}
, 			{
				"box" : 				{
					"id" : "obj-102",
					"maxclass" : "newobj",
					"numinlets" : 6,
					"numoutlets" : 1,
					"outlettype" : [ "" ],
					"patching_rect" : [ 548.0, 538.0, 103.0, 22.0 ],
					"text" : "scale 0 1023 0. 1."
				}

			}
, 			{
				"box" : 				{
					"id" : "obj-104",
					"maxclass" : "number",
					"numinlets" : 1,
					"numoutlets" : 2,
					"outlettype" : [ "", "bang" ],
					"parameter_enable" : 0,
					"patching_rect" : [ 412.0, 495.0, 50.0, 22.0 ]
				}

			}
, 			{
				"box" : 				{
					"id" : "obj-125",
					"maxclass" : "toggle",
					"numinlets" : 1,
					"numoutlets" : 1,
					"outlettype" : [ "int" ],
					"parameter_enable" : 0,
					"patching_rect" : [ 176.0, 558.0, 24.0, 24.0 ]
				}

			}
, 			{
				"box" : 				{
					"id" : "obj-67",
					"maxclass" : "newobj",
					"numinlets" : 6,
					"numoutlets" : 1,
					"outlettype" : [ "" ],
					"patching_rect" : [ 176.0, 518.0, 77.0, 22.0 ],
					"text" : "scale 0 1 1 0"
				}

			}
, 			{
				"box" : 				{
					"id" : "obj-107",
					"maxclass" : "comment",
					"numinlets" : 1,
					"numoutlets" : 0,
					"patching_rect" : [ 180.0, 462.0, 56.0, 20.0 ],
					"text" : "button 1"
				}

			}
, 			{
				"box" : 				{
					"id" : "obj-109",
					"maxclass" : "number",
					"numinlets" : 1,
					"numoutlets" : 2,
					"outlettype" : [ "", "bang" ],
					"parameter_enable" : 0,
					"patching_rect" : [ 176.0, 486.0, 50.0, 22.0 ]
				}

			}
, 			{
				"box" : 				{
					"id" : "obj-110",
					"maxclass" : "newobj",
					"numinlets" : 1,
					"numoutlets" : 4,
					"outlettype" : [ "int", "int", "int", "int" ],
					"patching_rect" : [ 156.0, 430.0, 578.0, 22.0 ],
					"text" : "unpack i i i i"
				}

			}
, 			{
				"box" : 				{
					"id" : "obj-111",
					"maxclass" : "message",
					"numinlets" : 2,
					"numoutlets" : 1,
					"outlettype" : [ "" ],
					"patching_rect" : [ 32.0, 398.0, 45.0, 22.0 ],
					"text" : "1 0 0 0"
				}

			}
, 			{
				"box" : 				{
					"id" : "obj-30",
					"maxclass" : "message",
					"numinlets" : 2,
					"numoutlets" : 1,
					"outlettype" : [ "" ],
					"patching_rect" : [ 36.0, 346.0, 54.0, 22.0 ],
					"text" : "\"1 0 0 0\""
				}

			}
, 			{
				"box" : 				{
					"id" : "obj-112",
					"maxclass" : "comment",
					"numinlets" : 1,
					"numoutlets" : 0,
					"patching_rect" : [ 228.0, 362.0, 259.0, 20.0 ],
					"text" : "convert symbols into numbers/messages"
				}

			}
, 			{
				"box" : 				{
					"id" : "obj-113",
					"maxclass" : "comment",
					"numinlets" : 1,
					"numoutlets" : 0,
					"patching_rect" : [ 200.0, 314.0, 212.0, 20.0 ],
					"text" : "convert intergers into symbols"
				}

			}
, 			{
				"box" : 				{
					"id" : "obj-114",
					"maxclass" : "comment",
					"numinlets" : 1,
					"numoutlets" : 0,
					"patching_rect" : [ 236.0, 274.0, 251.0, 20.0 ],
					"text" : "group messages together 100 arbitrary/large"
				}

			}
, 			{
				"box" : 				{
					"id" : "obj-115",
					"maxclass" : "comment",
					"numinlets" : 1,
					"numoutlets" : 0,
					"patching_rect" : [ 216.0, 234.0, 212.0, 20.0 ],
					"text" : "look for new line characters"
				}

			}
, 			{
				"box" : 				{
					"id" : "obj-117",
					"maxclass" : "newobj",
					"numinlets" : 1,
					"numoutlets" : 1,
					"outlettype" : [ "" ],
					"patching_rect" : [ 148.0, 358.0, 71.0, 22.0 ],
					"text" : "fromsymbol"
				}

			}
, 			{
				"box" : 				{
					"id" : "obj-33",
					"maxclass" : "newobj",
					"numinlets" : 3,
					"numoutlets" : 1,
					"outlettype" : [ "int" ],
					"patching_rect" : [ 148.0, 314.0, 40.0, 22.0 ],
					"text" : "itoa"
				}

			}
, 			{
				"box" : 				{
					"id" : "obj-32",
					"maxclass" : "newobj",
					"numinlets" : 2,
					"numoutlets" : 2,
					"outlettype" : [ "", "" ],
					"patching_rect" : [ 148.0, 278.0, 75.0, 22.0 ],
					"text" : "zl group 100"
				}

			}
, 			{
				"box" : 				{
					"id" : "obj-118",
					"maxclass" : "newobj",
					"numinlets" : 3,
					"numoutlets" : 3,
					"outlettype" : [ "bang", "bang", "" ],
					"patching_rect" : [ 148.0, 234.0, 57.0, 22.0 ],
					"text" : "sel 13 10"
				}

			}
, 			{
				"box" : 				{
					"id" : "obj-21",
					"maxclass" : "newobj",
					"numinlets" : 2,
					"numoutlets" : 1,
					"outlettype" : [ "bang" ],
					"patching_rect" : [ 68.0, 118.0, 56.0, 22.0 ],
					"text" : "metro 10"
				}

			}
, 			{
				"box" : 				{
					"id" : "obj-119",
					"maxclass" : "message",
					"numinlets" : 2,
					"numoutlets" : 1,
					"outlettype" : [ "" ],
					"patching_rect" : [ 48.0, 202.0, 50.0, 22.0 ],
					"text" : "32"
				}

			}
, 			{
				"box" : 				{
					"id" : "obj-120",
					"maxclass" : "message",
					"numinlets" : 2,
					"numoutlets" : 1,
					"outlettype" : [ "" ],
					"patching_rect" : [ 128.0, 118.0, 39.0, 22.0 ],
					"text" : "port z"
				}

			}
, 			{
				"box" : 				{
					"id" : "obj-121",
					"maxclass" : "newobj",
					"numinlets" : 2,
					"numoutlets" : 2,
					"outlettype" : [ "bang", "" ],
					"patching_rect" : [ 128.0, 70.0, 93.0, 22.0 ],
					"text" : "sel 0"
				}

			}
, 			{
				"box" : 				{
					"bgcolor" : [ 0.925490196078431, 0.780392156862745, 0.870588235294118, 1.0 ],
					"checkedcolor" : [ 0.815686274509804, 0.133333333333333, 0.352941176470588, 1.0 ],
					"id" : "obj-122",
					"maxclass" : "toggle",
					"numinlets" : 1,
					"numoutlets" : 1,
					"outlettype" : [ "int" ],
					"parameter_enable" : 0,
					"patching_rect" : [ 44.0, 30.0, 58.0, 58.0 ],
					"presentation" : 1,
					"presentation_rect" : [ 66.5, 81.0, 110.0, 110.0 ],
					"uncheckedcolor" : [ 0.325490196078431, 0.36078431372549, 0.368627450980392, 1.0 ]
				}

			}
, 			{
				"box" : 				{
					"id" : "obj-123",
					"maxclass" : "message",
					"numinlets" : 2,
					"numoutlets" : 1,
					"outlettype" : [ "" ],
					"patching_rect" : [ 204.0, 118.0, 39.0, 22.0 ],
					"text" : "port g"
				}

			}
, 			{
				"box" : 				{
					"id" : "obj-124",
					"maxclass" : "message",
					"numinlets" : 2,
					"numoutlets" : 1,
					"outlettype" : [ "" ],
					"patching_rect" : [ 252.0, 118.0, 32.0, 22.0 ],
					"text" : "print"
				}

			}
, 			{
				"box" : 				{
					"id" : "obj-127",
					"maxclass" : "newobj",
					"numinlets" : 1,
					"numoutlets" : 2,
					"outlettype" : [ "int", "" ],
					"patching_rect" : [ 148.0, 170.0, 77.0, 22.0 ],
					"text" : "serial z 9600"
				}

			}
, 			{
				"box" : 				{
					"bubble" : 1,
					"bubbleside" : 2,
					"fontface" : 2,
					"fontsize" : 24.0,
					"id" : "obj-8",
					"maxclass" : "comment",
					"numinlets" : 1,
					"numoutlets" : 0,
					"patching_rect" : [ 182.0, 74.0, 289.0, 52.0 ],
					"presentation" : 1,
					"presentation_rect" : [ 11.0, 18.0, 241.0, 52.0 ],
					"text" : "Turn on the Chaos",
					"textcolor" : [ 0.129411764705882, 0.129411764705882, 0.129411764705882, 1.0 ],
					"textjustification" : 1
				}

			}
 ],
		"lines" : [ 			{
				"patchline" : 				{
					"destination" : [ "obj-24", 0 ],
					"order" : 1,
					"source" : [ "obj-1", 0 ]
				}

			}
, 			{
				"patchline" : 				{
					"destination" : [ "obj-34", 0 ],
					"order" : 0,
					"source" : [ "obj-1", 0 ]
				}

			}
, 			{
				"patchline" : 				{
					"destination" : [ "obj-56", 0 ],
					"order" : 0,
					"source" : [ "obj-101", 0 ]
				}

			}
, 			{
				"patchline" : 				{
					"destination" : [ "obj-58", 0 ],
					"order" : 1,
					"source" : [ "obj-101", 0 ]
				}

			}
, 			{
				"patchline" : 				{
					"destination" : [ "obj-101", 0 ],
					"source" : [ "obj-102", 0 ]
				}

			}
, 			{
				"patchline" : 				{
					"destination" : [ "obj-134", 0 ],
					"source" : [ "obj-104", 0 ]
				}

			}
, 			{
				"patchline" : 				{
					"destination" : [ "obj-67", 0 ],
					"source" : [ "obj-109", 0 ]
				}

			}
, 			{
				"patchline" : 				{
					"destination" : [ "obj-104", 0 ],
					"source" : [ "obj-110", 1 ]
				}

			}
, 			{
				"patchline" : 				{
					"destination" : [ "obj-109", 0 ],
					"source" : [ "obj-110", 0 ]
				}

			}
, 			{
				"patchline" : 				{
					"destination" : [ "obj-4", 0 ],
					"source" : [ "obj-110", 3 ]
				}

			}
, 			{
				"patchline" : 				{
					"destination" : [ "obj-110", 0 ],
					"order" : 0,
					"source" : [ "obj-117", 0 ]
				}

			}
, 			{
				"patchline" : 				{
					"destination" : [ "obj-111", 1 ],
					"order" : 1,
					"source" : [ "obj-117", 0 ]
				}

			}
, 			{
				"patchline" : 				{
					"destination" : [ "obj-32", 0 ],
					"source" : [ "obj-118", 2 ]
				}

			}
, 			{
				"patchline" : 				{
					"destination" : [ "obj-32", 0 ],
					"source" : [ "obj-118", 0 ]
				}

			}
, 			{
				"patchline" : 				{
					"destination" : [ "obj-49", 0 ],
					"order" : 1,
					"source" : [ "obj-12", 0 ]
				}

			}
, 			{
				"patchline" : 				{
					"destination" : [ "obj-52", 0 ],
					"order" : 0,
					"source" : [ "obj-12", 0 ]
				}

			}
, 			{
				"patchline" : 				{
					"destination" : [ "obj-127", 0 ],
					"source" : [ "obj-120", 0 ]
				}

			}
, 			{
				"patchline" : 				{
					"destination" : [ "obj-120", 0 ],
					"source" : [ "obj-121", 0 ]
				}

			}
, 			{
				"patchline" : 				{
					"destination" : [ "obj-123", 0 ],
					"source" : [ "obj-121", 1 ]
				}

			}
, 			{
				"patchline" : 				{
					"destination" : [ "obj-121", 0 ],
					"order" : 0,
					"source" : [ "obj-122", 0 ]
				}

			}
, 			{
				"patchline" : 				{
					"destination" : [ "obj-21", 0 ],
					"order" : 1,
					"source" : [ "obj-122", 0 ]
				}

			}
, 			{
				"patchline" : 				{
					"destination" : [ "obj-127", 0 ],
					"source" : [ "obj-123", 0 ]
				}

			}
, 			{
				"patchline" : 				{
					"destination" : [ "obj-127", 0 ],
					"source" : [ "obj-124", 0 ]
				}

			}
, 			{
				"patchline" : 				{
					"destination" : [ "obj-118", 0 ],
					"order" : 0,
					"source" : [ "obj-127", 0 ]
				}

			}
, 			{
				"patchline" : 				{
					"destination" : [ "obj-119", 1 ],
					"order" : 1,
					"source" : [ "obj-127", 0 ]
				}

			}
, 			{
				"patchline" : 				{
					"destination" : [ "obj-51", 0 ],
					"source" : [ "obj-13", 0 ]
				}

			}
, 			{
				"patchline" : 				{
					"destination" : [ "obj-12", 0 ],
					"source" : [ "obj-134", 0 ]
				}

			}
, 			{
				"patchline" : 				{
					"destination" : [ "obj-144", 0 ],
					"source" : [ "obj-138", 0 ]
				}

			}
, 			{
				"patchline" : 				{
					"destination" : [ "obj-6", 6 ],
					"source" : [ "obj-14", 0 ]
				}

			}
, 			{
				"patchline" : 				{
					"destination" : [ "obj-15", 0 ],
					"source" : [ "obj-144", 0 ]
				}

			}
, 			{
				"patchline" : 				{
					"destination" : [ "obj-17", 0 ],
					"source" : [ "obj-15", 0 ]
				}

			}
, 			{
				"patchline" : 				{
					"destination" : [ "obj-43", 0 ],
					"source" : [ "obj-16", 0 ]
				}

			}
, 			{
				"patchline" : 				{
					"destination" : [ "obj-1", 0 ],
					"order" : 0,
					"source" : [ "obj-17", 0 ]
				}

			}
, 			{
				"patchline" : 				{
					"destination" : [ "obj-6", 4 ],
					"order" : 1,
					"source" : [ "obj-17", 0 ]
				}

			}
, 			{
				"patchline" : 				{
					"destination" : [ "obj-102", 2 ],
					"source" : [ "obj-2", 0 ]
				}

			}
, 			{
				"patchline" : 				{
					"destination" : [ "obj-23", 0 ],
					"source" : [ "obj-20", 0 ]
				}

			}
, 			{
				"patchline" : 				{
					"destination" : [ "obj-127", 0 ],
					"source" : [ "obj-21", 0 ]
				}

			}
, 			{
				"patchline" : 				{
					"destination" : [ "obj-1", 0 ],
					"source" : [ "obj-23", 0 ]
				}

			}
, 			{
				"patchline" : 				{
					"destination" : [ "obj-25", 1 ],
					"source" : [ "obj-24", 1 ]
				}

			}
, 			{
				"patchline" : 				{
					"destination" : [ "obj-25", 0 ],
					"source" : [ "obj-24", 0 ]
				}

			}
, 			{
				"patchline" : 				{
					"destination" : [ "obj-27", 0 ],
					"source" : [ "obj-26", 0 ]
				}

			}
, 			{
				"patchline" : 				{
					"destination" : [ "obj-28", 4 ],
					"order" : 2,
					"source" : [ "obj-27", 0 ]
				}

			}
, 			{
				"patchline" : 				{
					"destination" : [ "obj-28", 2 ],
					"order" : 3,
					"source" : [ "obj-27", 0 ]
				}

			}
, 			{
				"patchline" : 				{
					"destination" : [ "obj-35", 3 ],
					"order" : 0,
					"source" : [ "obj-27", 0 ]
				}

			}
, 			{
				"patchline" : 				{
					"destination" : [ "obj-35", 2 ],
					"order" : 1,
					"source" : [ "obj-27", 0 ]
				}

			}
, 			{
				"patchline" : 				{
					"destination" : [ "obj-35", 1 ],
					"order" : 0,
					"source" : [ "obj-28", 0 ]
				}

			}
, 			{
				"patchline" : 				{
					"destination" : [ "obj-36", 0 ],
					"order" : 1,
					"source" : [ "obj-28", 0 ]
				}

			}
, 			{
				"patchline" : 				{
					"destination" : [ "obj-14", 0 ],
					"source" : [ "obj-3", 0 ]
				}

			}
, 			{
				"patchline" : 				{
					"destination" : [ "obj-33", 0 ],
					"source" : [ "obj-32", 0 ]
				}

			}
, 			{
				"patchline" : 				{
					"destination" : [ "obj-117", 0 ],
					"order" : 0,
					"source" : [ "obj-33", 0 ]
				}

			}
, 			{
				"patchline" : 				{
					"destination" : [ "obj-30", 1 ],
					"order" : 1,
					"source" : [ "obj-33", 0 ]
				}

			}
, 			{
				"patchline" : 				{
					"destination" : [ "obj-26", 0 ],
					"source" : [ "obj-34", 1 ]
				}

			}
, 			{
				"patchline" : 				{
					"destination" : [ "obj-45", 0 ],
					"order" : 1,
					"source" : [ "obj-35", 0 ]
				}

			}
, 			{
				"patchline" : 				{
					"destination" : [ "obj-47", 0 ],
					"order" : 0,
					"source" : [ "obj-35", 0 ]
				}

			}
, 			{
				"patchline" : 				{
					"destination" : [ "obj-38", 0 ],
					"source" : [ "obj-37", 0 ]
				}

			}
, 			{
				"patchline" : 				{
					"destination" : [ "obj-37", 0 ],
					"order" : 2,
					"source" : [ "obj-39", 0 ]
				}

			}
, 			{
				"patchline" : 				{
					"destination" : [ "obj-41", 3 ],
					"order" : 0,
					"source" : [ "obj-39", 0 ]
				}

			}
, 			{
				"patchline" : 				{
					"destination" : [ "obj-41", 1 ],
					"order" : 1,
					"source" : [ "obj-39", 0 ]
				}

			}
, 			{
				"patchline" : 				{
					"destination" : [ "obj-102", 0 ],
					"source" : [ "obj-4", 0 ]
				}

			}
, 			{
				"patchline" : 				{
					"destination" : [ "obj-39", 0 ],
					"source" : [ "obj-40", 1 ]
				}

			}
, 			{
				"patchline" : 				{
					"destination" : [ "obj-16", 0 ],
					"order" : 2,
					"source" : [ "obj-41", 0 ]
				}

			}
, 			{
				"patchline" : 				{
					"destination" : [ "obj-35", 0 ],
					"order" : 1,
					"source" : [ "obj-41", 0 ]
				}

			}
, 			{
				"patchline" : 				{
					"destination" : [ "obj-46", 0 ],
					"order" : 0,
					"source" : [ "obj-41", 0 ]
				}

			}
, 			{
				"patchline" : 				{
					"destination" : [ "obj-41", 2 ],
					"source" : [ "obj-42", 1 ]
				}

			}
, 			{
				"patchline" : 				{
					"destination" : [ "obj-41", 1 ],
					"source" : [ "obj-42", 0 ]
				}

			}
, 			{
				"patchline" : 				{
					"destination" : [ "obj-44", 0 ],
					"source" : [ "obj-43", 0 ]
				}

			}
, 			{
				"patchline" : 				{
					"destination" : [ "obj-52", 0 ],
					"order" : 0,
					"source" : [ "obj-49", 0 ]
				}

			}
, 			{
				"patchline" : 				{
					"destination" : [ "obj-6", 1 ],
					"order" : 1,
					"source" : [ "obj-49", 0 ]
				}

			}
, 			{
				"patchline" : 				{
					"destination" : [ "obj-52", 1 ],
					"source" : [ "obj-51", 0 ]
				}

			}
, 			{
				"patchline" : 				{
					"destination" : [ "obj-55", 0 ],
					"source" : [ "obj-52", 0 ]
				}

			}
, 			{
				"patchline" : 				{
					"destination" : [ "obj-1", 0 ],
					"source" : [ "obj-55", 0 ]
				}

			}
, 			{
				"patchline" : 				{
					"destination" : [ "obj-57", 0 ],
					"source" : [ "obj-56", 0 ]
				}

			}
, 			{
				"patchline" : 				{
					"destination" : [ "obj-19", 0 ],
					"order" : 2,
					"source" : [ "obj-6", 0 ]
				}

			}
, 			{
				"patchline" : 				{
					"destination" : [ "obj-28", 0 ],
					"order" : 1,
					"source" : [ "obj-6", 0 ]
				}

			}
, 			{
				"patchline" : 				{
					"destination" : [ "obj-41", 0 ],
					"order" : 0,
					"source" : [ "obj-6", 0 ]
				}

			}
, 			{
				"patchline" : 				{
					"destination" : [ "obj-125", 0 ],
					"order" : 1,
					"source" : [ "obj-67", 0 ]
				}

			}
, 			{
				"patchline" : 				{
					"destination" : [ "obj-138", 0 ],
					"order" : 0,
					"source" : [ "obj-67", 0 ]
				}

			}
, 			{
				"patchline" : 				{
					"destination" : [ "obj-69", 0 ],
					"source" : [ "obj-68", 0 ]
				}

			}
, 			{
				"patchline" : 				{
					"destination" : [ "obj-65", 0 ],
					"source" : [ "obj-69", 0 ]
				}

			}
, 			{
				"patchline" : 				{
					"destination" : [ "obj-102", 1 ],
					"source" : [ "obj-75", 0 ]
				}

			}
 ],
		"parameters" : 		{
			"obj-16::obj-1" : [ "textbutton[2]", "textbutton[1]", 0 ],
			"obj-16::obj-17" : [ "pictctrl[62]", "pictctrl[1]", 0 ],
			"obj-16::obj-19" : [ "pictctrl[38]", "pictctrl[1]", 0 ],
			"obj-16::obj-2::obj-23" : [ "gswitch2[7]", "gswitch2", 0 ],
			"obj-16::obj-44" : [ "Red mode", "Red mode", 0 ],
			"obj-16::obj-46" : [ "pictctrl[63]", "pictctrl[1]", 0 ],
			"obj-16::obj-48" : [ "Green mode", "Green mode", 0 ],
			"obj-16::obj-50" : [ "pictctrl[59]", "pictctrl[1]", 0 ],
			"obj-16::obj-54" : [ "Blue mode", "Blue mode", 0 ],
			"obj-16::obj-58" : [ "pictctrl[61]", "pictctrl[1]", 0 ],
			"obj-16::obj-6" : [ "pictctrl[60]", "pictctrl[1]", 0 ],
			"obj-16::obj-65" : [ "pictctrl[84]", "pictctrl[1]", 0 ],
			"obj-19::obj-20" : [ "letterbox_menu[3]", "letterbox_menu", 0 ],
			"obj-19::obj-37" : [ "aspect_menu[3]", "aspect_menu", 0 ],
			"obj-24::obj-1" : [ "Width", "Width", 0 ],
			"obj-24::obj-2" : [ "Rate", "Rate", 0 ],
			"obj-24::obj-23" : [ "bypass", "bypass", 0 ],
			"obj-24::obj-28" : [ "Center", "Center", 0 ],
			"obj-24::obj-3" : [ "Regen", "Regen", 0 ],
			"obj-25::obj-22" : [ "Mute", "Mute", 0 ],
			"obj-25::obj-52" : [ "Level", "Level", 0 ],
			"obj-25::obj-55" : [ "DSP", "DSP", 0 ],
			"obj-25::obj-56" : [ "OutputChannel", "OutputChannel", 0 ],
			"obj-26::obj-10" : [ "range[4]", "range", 0 ],
			"obj-26::obj-12" : [ "pictctrl[44]", "pictctrl", 0 ],
			"obj-26::obj-15" : [ "pictctrl[41]", "pictctrl[2]", 0 ],
			"obj-26::obj-37" : [ "smoothing[4]", "Smoothing", 0 ],
			"obj-26::obj-5" : [ "pictctrl[43]", "pictctrl[1]", 0 ],
			"obj-26::obj-51" : [ "pictctrl[42]", "pictctrl[2]", 0 ],
			"obj-27::obj-11" : [ "pictctrl[11]", "pictctrl[1]", 0 ],
			"obj-27::obj-16" : [ "pictctrl[10]", "pictctrl[1]", 0 ],
			"obj-27::obj-51" : [ "pictctrl[6]", "pictctrl[1]", 0 ],
			"obj-27::obj-9" : [ "Fader", "Fader", 0 ],
			"obj-28::obj-100" : [ "range[17]", "range", 0 ],
			"obj-28::obj-104" : [ "pictctrl[13]", "pictctrl[1]", 0 ],
			"obj-28::obj-119" : [ "Zoom", "Zoom", 0 ],
			"obj-28::obj-120" : [ "range", "range", 1 ],
			"obj-28::obj-125" : [ "pictctrl[17]", "pictctrl[1]", 0 ],
			"obj-28::obj-126" : [ "pictctrl[5]", "pictctrl[1]", 0 ],
			"obj-28::obj-128" : [ "range[1]", "range", 1 ],
			"obj-28::obj-13" : [ "Y center", "Y center", 0 ],
			"obj-28::obj-14" : [ "X center", "X center", 0 ],
			"obj-28::obj-141" : [ "range[2]", "range", 1 ],
			"obj-28::obj-148" : [ "pictctrl[15]", "pictctrl[1]", 0 ],
			"obj-28::obj-149" : [ "pictctrl[16]", "pictctrl[1]", 0 ],
			"obj-28::obj-150" : [ "pictctrl[28]", "pictctrl[1]", 0 ],
			"obj-28::obj-151" : [ "pictctrl[27]", "pictctrl[1]", 0 ],
			"obj-28::obj-30" : [ "Toggle tan warp", "Toggle tan warp", 0 ],
			"obj-28::obj-31" : [ "Mode", "Mode", 0 ],
			"obj-28::obj-32" : [ "Toggle cos warp", "Toggle cos warp", 0 ],
			"obj-28::obj-34" : [ "sin warp[1]", "Sin warp", 0 ],
			"obj-28::obj-35" : [ "Sin warp", "Sin warp", 0 ],
			"obj-28::obj-36" : [ "Cos warp", "Cos warp", 0 ],
			"obj-28::obj-37" : [ "cos warp[2]", "Cos warp", 0 ],
			"obj-28::obj-40" : [ "Toggle sine warp", "Toggle sine warp", 0 ],
			"obj-28::obj-47" : [ "pictctrl[45]", "pictctrl[1]", 0 ],
			"obj-28::obj-50" : [ "pictctrl[14]", "pictctrl[1]", 0 ],
			"obj-28::obj-54" : [ "tan warp[2]", "Tan warp", 0 ],
			"obj-28::obj-55" : [ "Tan warp", "Tan warp", 0 ],
			"obj-28::obj-65" : [ "pictctrl[12]", "pictctrl[1]", 0 ],
			"obj-28::obj-74" : [ "pictctrl[36]", "pictctrl[1]", 0 ],
			"obj-28::obj-79" : [ "pictctrl[37]", "pictctrl[1]", 0 ],
			"obj-28::obj-8" : [ "pictctrl[35]", "pictctrl[1]", 0 ],
			"obj-28::obj-96::obj-23" : [ "gswitch2[3]", "gswitch2", 0 ],
			"obj-34::obj-11" : [ "pictctrl[3]", "pictctrl[1]", 0 ],
			"obj-34::obj-14" : [ "pictctrl[4]", "pictctrl[1]", 0 ],
			"obj-34::obj-22" : [ "range[3]", "range", 0 ],
			"obj-35::obj-17::obj-23" : [ "gswitch2[5]", "gswitch2", 0 ],
			"obj-35::obj-21" : [ "range[19]", "range", 0 ],
			"obj-35::obj-24" : [ "pictctrl[98]", "pictctrl[1]", 0 ],
			"obj-35::obj-26" : [ "Crossfade", "Crossfade", 0 ],
			"obj-35::obj-39" : [ "Operator mode", "Operator mode", 0 ],
			"obj-35::obj-51" : [ "pictctrl[47]", "pictctrl[1]", 0 ],
			"obj-35::obj-56::obj-23" : [ "gswitch2[4]", "gswitch2", 0 ],
			"obj-36::obj-20" : [ "letterbox_menu", "letterbox_menu", 0 ],
			"obj-36::obj-37" : [ "aspect_menu", "aspect_menu", 0 ],
			"obj-37::obj-10" : [ "range[5]", "range", 0 ],
			"obj-37::obj-12" : [ "pictctrl[49]", "pictctrl", 0 ],
			"obj-37::obj-15" : [ "pictctrl[48]", "pictctrl[2]", 0 ],
			"obj-37::obj-37" : [ "smoothing[1]", "Smoothing", 0 ],
			"obj-37::obj-5" : [ "pictctrl[19]", "pictctrl[1]", 0 ],
			"obj-37::obj-51" : [ "pictctrl[18]", "pictctrl[2]", 0 ],
			"obj-38::obj-11" : [ "pictctrl[50]", "pictctrl[1]", 0 ],
			"obj-38::obj-16" : [ "pictctrl[51]", "pictctrl[1]", 0 ],
			"obj-38::obj-51" : [ "pictctrl[52]", "pictctrl[1]", 0 ],
			"obj-38::obj-9" : [ "Fader[1]", "Fader", 0 ],
			"obj-39::obj-39" : [ "pictctrl[34]", "pictctrl[1]", 0 ],
			"obj-39::obj-6" : [ "pictctrl[53]", "pictctrl[1]", 0 ],
			"obj-39::obj-64" : [ "umenu[4]", "umenu", 0 ],
			"obj-40::obj-12" : [ "Mute[1]", "Mute", 0 ],
			"obj-40::obj-144" : [ "Phase", "Phase", 0 ],
			"obj-40::obj-70" : [ "Amt", "CV Amt", 0 ],
			"obj-40::obj-74" : [ "SyncRate", "Rate", 0 ],
			"obj-40::obj-75" : [ "Shape", "Shape", 0 ],
			"obj-40::obj-81" : [ "Phase-Inversion", "Phase-Inversion", 1 ],
			"obj-40::obj-88" : [ "Time Mode", "Time Mode", 1 ],
			"obj-40::obj-89" : [ "FreqRate", "Rate", 0 ],
			"obj-40::obj-94" : [ "Re-Trigger", "Re-Trigger", 0 ],
			"obj-41::obj-104" : [ "pictctrl[23]", "pictctrl[1]", 0 ],
			"obj-41::obj-119" : [ "Brightness", "Brightness", 0 ],
			"obj-41::obj-120" : [ "Brightness range", "Brightness range", 1 ],
			"obj-41::obj-121" : [ "Offset[2]", "Brightness", 0 ],
			"obj-41::obj-127" : [ "Contrast", "Contrast", 0 ],
			"obj-41::obj-128" : [ "Contrast range", "Contrast range", 1 ],
			"obj-41::obj-129" : [ "contrast", "Contrast", 0 ],
			"obj-41::obj-140" : [ "Saturation", "Saturation", 0 ],
			"obj-41::obj-141" : [ "Saturation range", "Saturation range", 1 ],
			"obj-41::obj-142" : [ "saturation[1]", "Saturation", 0 ],
			"obj-41::obj-147" : [ "pictctrl[22]", "pictctrl[1]", 0 ],
			"obj-41::obj-148" : [ "pictctrl[25]", "pictctrl[1]", 0 ],
			"obj-41::obj-149" : [ "pictctrl[21]", "pictctrl[1]", 0 ],
			"obj-41::obj-150" : [ "pictctrl[24]", "pictctrl[1]", 0 ],
			"obj-41::obj-151" : [ "pictctrl[20]", "pictctrl[1]", 0 ],
			"obj-41::obj-56::obj-23" : [ "gswitch2[6]", "gswitch2", 0 ],
			"obj-41::obj-6" : [ "range[6]", "range", 0 ],
			"obj-42::obj-127" : [ "pictctrl[57]", "pictctrl[1]", 0 ],
			"obj-42::obj-138" : [ "pictctrl[30]", "pictctrl[1]", 0 ],
			"obj-42::obj-140" : [ "pictctrl[58]", "pictctrl[1]", 0 ],
			"obj-42::obj-142" : [ "pictctrl[31]", "pictctrl[1]", 0 ],
			"obj-42::obj-144" : [ "pictctrl[56]", "pictctrl[1]", 0 ],
			"obj-42::obj-15" : [ "pictctrl[29]", "pictctrl[1]", 0 ],
			"obj-42::obj-28" : [ "Rate[1]", "Rate", 0 ],
			"obj-42::obj-33" : [ "pictctrl[54]", "pictctrl[1]", 0 ],
			"obj-42::obj-7" : [ "textbutton[1]", "textbutton[1]", 0 ],
			"obj-42::obj-8" : [ "pictctrl[55]", "pictctrl[1]", 0 ],
			"obj-42::obj-86" : [ "FreqMode[2]", "FreqMode", 0 ],
			"obj-43::obj-10" : [ "range[7]", "range", 0 ],
			"obj-43::obj-12" : [ "pictctrl[65]", "pictctrl", 0 ],
			"obj-43::obj-15" : [ "pictctrl[40]", "pictctrl[2]", 0 ],
			"obj-43::obj-37" : [ "smoothing[2]", "Smoothing", 0 ],
			"obj-43::obj-5" : [ "pictctrl[64]", "pictctrl[1]", 0 ],
			"obj-43::obj-51" : [ "pictctrl[39]", "pictctrl[2]", 0 ],
			"obj-44::obj-11" : [ "pictctrl[67]", "pictctrl[1]", 0 ],
			"obj-44::obj-16" : [ "pictctrl[68]", "pictctrl[1]", 0 ],
			"obj-44::obj-51" : [ "pictctrl[66]", "pictctrl[1]", 0 ],
			"obj-44::obj-9" : [ "Fader[2]", "Fader", 0 ],
			"obj-45::obj-20" : [ "letterbox_menu[1]", "letterbox_menu", 0 ],
			"obj-45::obj-37" : [ "aspect_menu[1]", "aspect_menu", 0 ],
			"obj-46::obj-20" : [ "letterbox_menu[2]", "letterbox_menu", 0 ],
			"obj-46::obj-37" : [ "aspect_menu[2]", "aspect_menu", 0 ],
			"obj-47::obj-12" : [ "Fullscreen[1]", "Fullscreen", 0 ],
			"obj-47::obj-16" : [ "Toggle display[1]", "Toggle display", 0 ],
			"obj-47::obj-1::obj-23" : [ "gswitch2[8]", "gswitch2", 0 ],
			"obj-47::obj-2" : [ "pictctrl[69]", "pictctrl[1]", 0 ],
			"obj-47::obj-3" : [ "toggle[1]", "toggle", 0 ],
			"obj-47::obj-41" : [ "pictctrl[71]", "pictctrl[1]", 0 ],
			"obj-47::obj-50" : [ "pictctrl[70]", "pictctrl[1]", 0 ],
			"obj-47::obj-6" : [ "live.toggle[2]", "live.toggle", 0 ],
			"obj-6::obj-112::obj-119" : [ "Speed high", "Speed high", 0 ],
			"obj-6::obj-112::obj-120" : [ "Rate range", "Rate range", 0 ],
			"obj-6::obj-112::obj-121" : [ "Speed low", "Speed low", 0 ],
			"obj-6::obj-112::obj-16" : [ "Playback range", "Playback range", 0 ],
			"obj-6::obj-112::obj-40" : [ "Playback controls", "Playback controls", 0 ],
			"obj-6::obj-112::obj-79" : [ "Playback position", "Playback position", 0 ],
			"obj-6::obj-112::obj-89" : [ "Reset range", "Reset range", 0 ],
			"obj-6::obj-112::obj-92" : [ "Reset speed", "Reset speed", 0 ],
			"obj-6::obj-16" : [ "pictctrl[1]", "pictctrl[1]", 0 ],
			"obj-6::obj-20" : [ "pictctrl[2]", "pictctrl[1]", 0 ],
			"obj-6::obj-28" : [ "pictctrl[279]", "pictctrl[1]", 0 ],
			"obj-6::obj-40" : [ "pictctrl[283]", "pictctrl[1]", 0 ],
			"obj-6::obj-51" : [ "moviepath", "moviepath", 0 ],
			"obj-6::obj-60" : [ "pictctrl[282]", "pictctrl[1]", 0 ],
			"obj-6::obj-64" : [ "pictctrl[284]", "pictctrl[1]", 0 ],
			"obj-6::obj-81" : [ "pictctrl[281]", "pictctrl[1]", 0 ],
			"obj-6::obj-83" : [ "pictctrl[280]", "pictctrl[1]", 0 ],
			"obj-6::obj-89" : [ "moviename", "moviename", 0 ],
			"parameterbanks" : 			{

			}
,
			"parameter_overrides" : 			{
				"obj-16::obj-17" : 				{
					"parameter_longname" : "pictctrl[62]"
				}
,
				"obj-16::obj-19" : 				{
					"parameter_longname" : "pictctrl[38]"
				}
,
				"obj-16::obj-46" : 				{
					"parameter_longname" : "pictctrl[63]"
				}
,
				"obj-16::obj-50" : 				{
					"parameter_longname" : "pictctrl[59]"
				}
,
				"obj-16::obj-58" : 				{
					"parameter_longname" : "pictctrl[61]"
				}
,
				"obj-16::obj-6" : 				{
					"parameter_longname" : "pictctrl[60]"
				}
,
				"obj-19::obj-20" : 				{
					"parameter_longname" : "letterbox_menu[3]"
				}
,
				"obj-19::obj-37" : 				{
					"parameter_longname" : "aspect_menu[3]"
				}
,
				"obj-27::obj-16" : 				{
					"parameter_longname" : "pictctrl[10]"
				}
,
				"obj-28::obj-104" : 				{
					"parameter_longname" : "pictctrl[13]"
				}
,
				"obj-28::obj-125" : 				{
					"parameter_longname" : "pictctrl[17]"
				}
,
				"obj-28::obj-148" : 				{
					"parameter_longname" : "pictctrl[15]"
				}
,
				"obj-28::obj-149" : 				{
					"parameter_longname" : "pictctrl[16]"
				}
,
				"obj-28::obj-47" : 				{
					"parameter_longname" : "pictctrl[45]"
				}
,
				"obj-28::obj-50" : 				{
					"parameter_longname" : "pictctrl[14]"
				}
,
				"obj-28::obj-65" : 				{
					"parameter_longname" : "pictctrl[12]"
				}
,
				"obj-34::obj-11" : 				{
					"parameter_longname" : "pictctrl[3]"
				}
,
				"obj-34::obj-14" : 				{
					"parameter_longname" : "pictctrl[4]"
				}
,
				"obj-37::obj-12" : 				{
					"parameter_longname" : "pictctrl[49]"
				}
,
				"obj-37::obj-15" : 				{
					"parameter_longname" : "pictctrl[48]"
				}
,
				"obj-37::obj-37" : 				{
					"parameter_longname" : "smoothing[1]"
				}
,
				"obj-37::obj-5" : 				{
					"parameter_longname" : "pictctrl[19]"
				}
,
				"obj-37::obj-51" : 				{
					"parameter_longname" : "pictctrl[18]"
				}
,
				"obj-38::obj-16" : 				{
					"parameter_longname" : "pictctrl[51]"
				}
,
				"obj-38::obj-51" : 				{
					"parameter_longname" : "pictctrl[52]"
				}
,
				"obj-38::obj-9" : 				{
					"parameter_longname" : "Fader[1]"
				}
,
				"obj-39::obj-6" : 				{
					"parameter_longname" : "pictctrl[53]"
				}
,
				"obj-40::obj-12" : 				{
					"parameter_longname" : "Mute[1]"
				}
,
				"obj-41::obj-104" : 				{
					"parameter_longname" : "pictctrl[23]"
				}
,
				"obj-41::obj-147" : 				{
					"parameter_longname" : "pictctrl[22]"
				}
,
				"obj-41::obj-148" : 				{
					"parameter_longname" : "pictctrl[25]"
				}
,
				"obj-41::obj-149" : 				{
					"parameter_longname" : "pictctrl[21]"
				}
,
				"obj-41::obj-150" : 				{
					"parameter_longname" : "pictctrl[24]"
				}
,
				"obj-41::obj-151" : 				{
					"parameter_longname" : "pictctrl[20]"
				}
,
				"obj-42::obj-127" : 				{
					"parameter_longname" : "pictctrl[57]"
				}
,
				"obj-42::obj-138" : 				{
					"parameter_longname" : "pictctrl[30]"
				}
,
				"obj-42::obj-140" : 				{
					"parameter_longname" : "pictctrl[58]"
				}
,
				"obj-42::obj-142" : 				{
					"parameter_longname" : "pictctrl[31]"
				}
,
				"obj-42::obj-144" : 				{
					"parameter_longname" : "pictctrl[56]"
				}
,
				"obj-42::obj-15" : 				{
					"parameter_longname" : "pictctrl[29]"
				}
,
				"obj-42::obj-28" : 				{
					"parameter_longname" : "Rate[1]"
				}
,
				"obj-42::obj-33" : 				{
					"parameter_longname" : "pictctrl[54]"
				}
,
				"obj-42::obj-8" : 				{
					"parameter_longname" : "pictctrl[55]"
				}
,
				"obj-43::obj-12" : 				{
					"parameter_longname" : "pictctrl[65]"
				}
,
				"obj-43::obj-15" : 				{
					"parameter_longname" : "pictctrl[40]"
				}
,
				"obj-43::obj-37" : 				{
					"parameter_longname" : "smoothing[2]"
				}
,
				"obj-43::obj-5" : 				{
					"parameter_longname" : "pictctrl[64]"
				}
,
				"obj-43::obj-51" : 				{
					"parameter_longname" : "pictctrl[39]"
				}
,
				"obj-44::obj-16" : 				{
					"parameter_longname" : "pictctrl[68]"
				}
,
				"obj-44::obj-51" : 				{
					"parameter_longname" : "pictctrl[66]"
				}
,
				"obj-44::obj-9" : 				{
					"parameter_longname" : "Fader[2]"
				}
,
				"obj-45::obj-20" : 				{
					"parameter_longname" : "letterbox_menu[1]"
				}
,
				"obj-45::obj-37" : 				{
					"parameter_longname" : "aspect_menu[1]"
				}
,
				"obj-46::obj-20" : 				{
					"parameter_longname" : "letterbox_menu[2]"
				}
,
				"obj-46::obj-37" : 				{
					"parameter_longname" : "aspect_menu[2]"
				}
,
				"obj-47::obj-16" : 				{
					"parameter_longname" : "Toggle display[1]"
				}
,
				"obj-47::obj-2" : 				{
					"parameter_longname" : "pictctrl[69]"
				}
,
				"obj-47::obj-41" : 				{
					"parameter_longname" : "pictctrl[71]"
				}
,
				"obj-47::obj-50" : 				{
					"parameter_longname" : "pictctrl[70]"
				}
,
				"obj-47::obj-6" : 				{
					"parameter_longname" : "live.toggle[2]"
				}

			}
,
			"inherited_shortname" : 1
		}
,
		"dependency_cache" : [ 			{
				"name" : "TWICE _FANCY_ MV.mp3",
				"bootpath" : "~/Documents/Interactive Sound Spring 24/Tessa_Hammond_max/tessa-max-spring24",
				"patcherrelativepath" : ".",
				"type" : "Mp3",
				"implicit" : 1
			}
, 			{
				"name" : "bp.CV LFO.maxpat",
				"bootpath" : "C74:/packages/Beap/clippings/BEAP/LFO",
				"type" : "JSON",
				"implicit" : 1
			}
, 			{
				"name" : "bp.Flanger.maxpat",
				"bootpath" : "C74:/packages/Beap/clippings/BEAP/Effects",
				"type" : "JSON",
				"implicit" : 1
			}
, 			{
				"name" : "bp.Stereo.maxpat",
				"bootpath" : "C74:/packages/Beap/clippings/BEAP/Output",
				"type" : "JSON",
				"implicit" : 1
			}
, 			{
				"name" : "brcosa.genjit",
				"bootpath" : "~/AppData/Roaming/Cycling '74/Max 8/examples/jitter-examples/gen",
				"patcherrelativepath" : "../../../../AppData/Roaming/Cycling '74/Max 8/examples/jitter-examples/gen",
				"type" : "gJIT",
				"implicit" : 1
			}
, 			{
				"name" : "data-handler-L.maxpat",
				"bootpath" : "C74:/packages/vizzie/patchers/utils",
				"type" : "JSON",
				"implicit" : 1
			}
, 			{
				"name" : "data-handler.maxpat",
				"bootpath" : "C74:/packages/vizzie/patchers/utils",
				"type" : "JSON",
				"implicit" : 1
			}
, 			{
				"name" : "data_smoother.maxpat",
				"bootpath" : "C74:/packages/vizzie/patchers/utils",
				"type" : "JSON",
				"implicit" : 1
			}
, 			{
				"name" : "exact_menu.maxpat",
				"bootpath" : "C74:/packages/vizzie/patchers/utils",
				"type" : "JSON",
				"implicit" : 1
			}
, 			{
				"name" : "lo_hi_UI_control.maxpat",
				"bootpath" : "C74:/packages/vizzie/patchers/utils",
				"type" : "JSON",
				"implicit" : 1
			}
, 			{
				"name" : "playr_controls.maxpat",
				"bootpath" : "C74:/packages/vizzie/patchers/utils",
				"type" : "JSON",
				"implicit" : 1
			}
, 			{
				"name" : "snapshot_UI.maxpat",
				"bootpath" : "C74:/packages/vizzie/patchers/utils",
				"type" : "JSON",
				"implicit" : 1
			}
, 			{
				"name" : "video-handler.maxpat",
				"bootpath" : "C74:/packages/vizzie/patchers/utils",
				"type" : "JSON",
				"implicit" : 1
			}
, 			{
				"name" : "vizzie-datatexconvert.js",
				"bootpath" : "C74:/packages/vizzie/code",
				"type" : "TEXT",
				"implicit" : 1
			}
, 			{
				"name" : "vizzie-global.js",
				"bootpath" : "C74:/packages/vizzie/code",
				"type" : "TEXT",
				"implicit" : 1
			}
, 			{
				"name" : "vz.analyzr.maxpat",
				"bootpath" : "C74:/packages/vizzie/patchers",
				"type" : "JSON",
				"implicit" : 1
			}
, 			{
				"name" : "vz.attractr.maxpat",
				"bootpath" : "C74:/packages/vizzie/patchers",
				"type" : "JSON",
				"implicit" : 1
			}
, 			{
				"name" : "vz.audio2vizzie.maxpat",
				"bootpath" : "C74:/packages/vizzie/patchers",
				"type" : "JSON",
				"implicit" : 1
			}
, 			{
				"name" : "vz.averagr.maxpat",
				"bootpath" : "C74:/packages/vizzie/patchers",
				"type" : "JSON",
				"implicit" : 1
			}
, 			{
				"name" : "vz.avplayr.maxpat",
				"bootpath" : "C74:/packages/vizzie/patchers",
				"type" : "JSON",
				"implicit" : 1
			}
, 			{
				"name" : "vz.beapconvertr.maxpat",
				"bootpath" : "C74:/packages/vizzie/patchers",
				"type" : "JSON",
				"implicit" : 1
			}
, 			{
				"name" : "vz.brcosr.maxpat",
				"bootpath" : "C74:/packages/vizzie/patchers",
				"type" : "JSON",
				"implicit" : 1
			}
, 			{
				"name" : "vz.fadr.maxpat",
				"bootpath" : "C74:/packages/vizzie/patchers",
				"type" : "JSON",
				"implicit" : 1
			}
, 			{
				"name" : "vz.mixfadr.maxpat",
				"bootpath" : "C74:/packages/vizzie/patchers",
				"type" : "JSON",
				"implicit" : 1
			}
, 			{
				"name" : "vz.projectr.maxpat",
				"bootpath" : "C74:/packages/vizzie/patchers",
				"type" : "JSON",
				"implicit" : 1
			}
, 			{
				"name" : "vz.reflectr.maxpat",
				"bootpath" : "C74:/packages/vizzie/patchers",
				"type" : "JSON",
				"implicit" : 1
			}
, 			{
				"name" : "vz.viewr.maxpat",
				"bootpath" : "C74:/packages/vizzie/patchers",
				"type" : "JSON",
				"implicit" : 1
			}
, 			{
				"name" : "vzgl-blackframe.maxpat",
				"bootpath" : "C74:/packages/vizzie/patchers/utils",
				"type" : "JSON",
				"implicit" : 1
			}
, 			{
				"name" : "vzgl-context.maxpat",
				"bootpath" : "C74:/packages/vizzie/patchers/utils",
				"type" : "JSON",
				"implicit" : 1
			}
, 			{
				"name" : "vzgl-disable.maxpat",
				"bootpath" : "C74:/packages/vizzie/patchers/utils",
				"type" : "JSON",
				"implicit" : 1
			}
, 			{
				"name" : "vzgl-object.maxpat",
				"bootpath" : "C74:/packages/vizzie/patchers/utils",
				"type" : "JSON",
				"implicit" : 1
			}
, 			{
				"name" : "vzgl-outputdim.maxpat",
				"bootpath" : "C74:/packages/vizzie/patchers/utils",
				"type" : "JSON",
				"implicit" : 1
			}
, 			{
				"name" : "vzgl-pwindow.maxpat",
				"bootpath" : "C74:/packages/vizzie/patchers/utils",
				"type" : "JSON",
				"implicit" : 1
			}
, 			{
				"name" : "vzgl-routegl.maxpat",
				"bootpath" : "C74:/packages/vizzie/patchers/utils",
				"type" : "JSON",
				"implicit" : 1
			}
, 			{
				"name" : "warpedmirror.genjit",
				"bootpath" : "C74:/packages/vizzie/patchers/gen",
				"type" : "gJIT",
				"implicit" : 1
			}
, 			{
				"name" : "windowresize.js",
				"bootpath" : "C74:/packages/vizzie/code",
				"type" : "TEXT",
				"implicit" : 1
			}
, 			{
				"name" : "xfade.genjit",
				"bootpath" : "~/AppData/Roaming/Cycling '74/Max 8/examples/jitter-examples/gen",
				"patcherrelativepath" : "../../../../AppData/Roaming/Cycling '74/Max 8/examples/jitter-examples/gen",
				"type" : "gJIT",
				"implicit" : 1
			}
 ],
		"autosave" : 0
	}

}
